<svg xmlns="http://www.w3.org/2000/svg" width="3475.356" height="1534.63" viewBox="0 0 3475.356 1534.63">
  <g id="logo_concept" data-name="logo concept" transform="translate(5589.373 -6796)">
    <g id="scarlet_pov" data-name="scarlet pov" transform="translate(-4800.713 2713)">
      <path id="Path_1235" data-name="Path 1235" d="M785.872,3243.482l-26.234,189.759-66.232,77.045,12.267-108.656-37.949,123.525s.455-55.194,4.726-74.921-9.64-104.037-9.64-104.037-18.16,23.537-24.58,37.053-2.891,41.083-2.891,41.083-15.522-16.7-22.956-49.82-6.781-82.644-6.781-82.644l154.036-161.4Z" transform="translate(-589.196 1783.681)" fill="#30161f"/>
      <path id="Path_1218" data-name="Path 1218" d="M-72.11,3241.5l34.338,298.74,10.3-145.936s-5.151,61.379,0,106.447,20.6,73.826,20.6,73.826a509,509,0,0,1-6.868-82.411c0-45.068,6.868-97.863,6.868-97.863s-2.146,70.822,12.018,132.2S49.79,3639.816,49.79,3639.816s-23.178-63.954-27.47-125.333,10.3-120.183,10.3-120.183,1.288,90.566,17.169,164.822,46.356,132.2,46.356,132.2-20.6-69.1-27.47-151.087,0-176.84,0-176.84Z" transform="translate(-589.196 1783.681)" fill="#30161f"/>
      <path id="Path_1212" data-name="Path 1212" d="M18.314,398C4.529,446.994-1.206,498.745.209,550.825A605.012,605.012,0,0,0,24.843,704.784a593.637,593.637,0,0,0,60.72,138.8c25.3,41.857,55.349,78.88,89.106,108.967,33.339,29.715,72.281,54.969,111.609,76.015a922.664,922.664,0,0,0,112.534,50.286c34.218,12.738,64.232,21.882,85.581,27.818,21.172,5.887,33.964,8.657,33.964,8.657s10.141-4.684,27.428-13.889c17.169-9.143,41.288-22.694,69.361-40.452a1109.708,1109.708,0,0,0,91.759-64.668,916.71,916.71,0,0,0,96.12-86.648c30.762-32.154,55.425-70.724,74.714-112.317C896.871,756.1,910.8,711.687,920.15,667.424a701.8,701.8,0,0,0,14.973-129.041c.854-40.83-2.237-78.534-8.761-109.762-6.542-31.316-21.35-68.307-43.048-106.568A612.808,612.808,0,0,0,797.487,206.2c-35.393-37.642-76.954-72.323-123.32-99.15-47.262-27.346-99.692-46.632-155.811-52.535A435.373,435.373,0,0,0,352.637,69.165c-53.6,15.308-103.622,40.271-148.2,72.209a515.573,515.573,0,0,0-116.5,115.662C55.895,301.184,32.031,349.253,18.314,398Z" transform="translate(-752.859 4190.701)" fill="#a7b5c7"/>
      <path id="Path_1219" data-name="Path 1219" d="M352.834,3522.366s-60.961-34.421-103.223-59.513-124.805-94.76-203.387-186.219-94.988-311.683-94.988-311.683l-2.058,330.01s23.525,35.25,78.552,80.566,130.039,81.134,183.49,102.319C283.38,3507,352.834,3522.366,352.834,3522.366Z" transform="translate(-587.318 1783.681)" fill="#73799f"/>
      <path id="Path_1221" data-name="Path 1221" d="M-47.827,3026.61l25.05,106.859,17.855,54.586s-4.922-59.676,4.307-72.6,26.454-71.98,38.759-74.441,15.38,41.835,23.378,52.909,15.262,2.115,33.6,11.5,24.845,33.723,43.24,28.925S256,2996.836,266.328,2973.592C278.8,2945.52,305.6,2861.42,305.6,2861.42l14.471-91.667-12.316-93.526L-67.928,2889.062Z" transform="translate(-587.318 1783.681)" fill="#73799f"/>
      <path id="Path_1216" data-name="Path 1216" d="M-158.482,3127.99s-3.327,141.541,25.4,280.392,89.5,275.01,89.5,275.01L-67.355,3564.53s35.931,131.882,45.063,160.346,42.567,82.175,42.567,82.175-30.971-70.414-35.214-84.656-46.288-170.274-52.416-196.164c-10.247-43.293-7.924-158.482-7.924-158.482s-5.613,41.932,22.452,158.482,89.807,307.72,89.807,307.72-54.156-252.006-64.714-307.72-13.471-104.463-15.848-169.048,0-408.092,0-408.092Z" transform="translate(-589.196 1783.681)" fill="#3d1d28"/>
      <path id="Path_1217" data-name="Path 1217" d="M785.872,2995.293s10.1,229.892,0,343.722-40.4,111.6-40.4,111.6,15.624-51.335,15.624-120.526-15.624-156.237-15.624-156.237,1.674,91.51-8.928,165.165-33.479,129.454-33.479,129.454,10.047-46.871,6.142-138.382-14.495-236.469-30.375-329.482-91.128-248.29-91.128-248.29Z" transform="translate(-589.196 1783.681)" fill="#3d1d28"/>
      <path id="Path_1222" data-name="Path 1222" d="M1914.405,3897.39c7.137-1.463,61.193-98.472,136.857-104.958s110.1,39.1,110.1,39.1,2.12-15.978-7.857-23.737-59.585-44.62-119.724-31.871-115.013,77.876-120.833,82.865S1907.268,3898.854,1914.405,3897.39Z" transform="translate(-2143.928 800.857)" fill="#30161f"/>
      <path id="Path_1238" data-name="Path 1238" d="M514.247,2967.134s12.044,22.256-5.76,26.446-111.28,14.146-117.3,15.455-21.732,18.382-21.732,18.382.141-30.989,2.558-35.622,13.858-44.544,40.021-73.855,59.593-47.419,68.5-47.157-14.457,73.049-14.457,73.049Z" transform="translate(-589.196 1783.681)" fill="#73799f"/>
      <path id="Path_1215" data-name="Path 1215" d="M-202.4,2810.941s-10.229-133.924,35.995-332.026,276.022-342.056,475.445-359.225,301.115,130.747,372.432,228.478,92.448,323.566,92.448,323.566S584.75,2457.276,340.67,2492.078-202.4,2810.941-202.4,2810.941Z" transform="translate(-577.242 1964.681)" fill="#201324"/>
      <path id="Path_1220" data-name="Path 1220" d="M611.482,2772.141s54.942,132,53.943,204.6-66.242,203.679-66.242,203.679,10.425-108.85,17.454-184.407-71.19-307.073-71.19-307.073v151.882l-51.507-203.387,10.566,216.594-63.393-216.594,15.848,146.6-47.545-138.673,25.093,106.977-35.659-88.487,10.566,88.487L356.588,2654.6s26.668,98.723,11.175,199.425-73.146,203.385-73.146,203.385,29.208-104.994,27.43-203.385-34.541-190.18-34.541-190.18-17.271,232.542-35.252,276.024-120.183,183.07-120.183,183.07,34.846-63.6,48.053-94.076,16.966-78.63,16.966-78.63l-69.794,150.252L172.5,2950.233s-27.684,66.007-45.208,102-30.478,48.256-30.478,48.256,15.239-36.065,20.318-71.622-14.731-90.618-14.731-90.618L71.419,3083.723,45.513,2912.847-10.87,3116.232l-51.1-262.206,477.482-303.051Z" transform="translate(-589.196 1783.681)" fill="#3d1d28"/>
      <path id="Path_1214" data-name="Path 1214" d="M-146.374,3124.725s5.588-54.948,8.719-81.737S-90.642,2821,37.771,2690.354,277.566,2526.559,376,2522.5s210.181,68.066,257.928,125.972S734.033,2868,743.41,2910.114s17.169,159.67,17.169,159.67,39.895-263.079,34.338-319.34-47.209-182.233-103.084-254.363S490.189,2311.991,376,2324.658c-110.167,12.22-253.585,41.142-400.379,175.488s-179.815,285.47-186.795,361.9c-2,21.858,8.938,35.328,11.986,74.948,1.326,17.235-2.262,52.66,8.892,99.595S-146.374,3124.725-146.374,3124.725Z" transform="translate(-577.242 1964.681)" fill="#251726"/>
      <path id="Path_1223" data-name="Path 1223" d="M382,2998.993s1.036-10.469,2.419-12.639c8.37-13.134,43.693-65.115,90.02-84.882,53.006-22.617,129.862-4.483,129.862-4.483s-26.975,50.643-79.981,73.26c-43.889,18.727-109.589,20.863-132.509,21.2C387.428,2991.518,382,2998.993,382,2998.993Z" transform="translate(-589.196 1783.681)" fill="#210e15"/>
      <path id="Path_1234" data-name="Path 1234" d="M393.99,2975.767s4.657-6.821,5.9-8.773c7.531-11.818,39.916-52.388,81.6-70.175,47.694-20.351,100.532-.518,100.532-.518s-22.709,40.518-70.4,60.869c-42.4,12.572-91.106,14.289-111.73,14.595C396.692,2971.849,393.99,2975.767,393.99,2975.767Z" transform="translate(-589.196 1794.59)" fill="#c1ccdb"/>
      <path id="Path_1225" data-name="Path 1225" d="M552.316,2895.126c3.035.848,22.739-6.83,22.739-6.83l-6.289,6.184,14.692-5.43-9.158,7.17,9.381-2.22-2.464,3.061,6.7-3.775-2.732,5.166,7.775-7.129-1.393,8.468,4.606-2.31-3.213,4.121S549.281,2894.278,552.316,2895.126Z" transform="translate(-578.28 1779.681)" fill="#210e15"/>
      <path id="Path_1236" data-name="Path 1236" d="M429.292,2940.358s29.64,29.027,67.014,15.51,48.468-57.514,48.468-57.514-25.1-10.071-62.469,3.446S429.292,2940.358,429.292,2940.358Z" transform="translate(-589.196 1783.681)" fill="#210e15"/>
      <path id="Path_1239" data-name="Path 1239" d="M236.912,3325.952s49.016,4.34,91.565,2.042a472.579,472.579,0,0,0,78.63-11.233h-78.63Z" transform="translate(-589.196 1783.681)" fill="#737a9f"/>
      <path id="Path_1237" data-name="Path 1237" d="M3750.033,4275.249c6.781,1.571,85.253-.915,155.344-4.425s80.589.811,126.084-.891a337.075,337.075,0,0,0,40.641-3.69c6.558-.776,14.227-1.657,18.406-4.3s2.909-6.435-2.257-6.559-15.006,5.821-18.194,6.841-3.536,4.646-41.659,4.646-64.207-5.6-106.129-4.9-79.532,8.686-122.251,10.133-41.446-4.8-46.6-4.437S3743.252,4273.678,3750.033,4275.249Z" transform="matrix(0.999, -0.035, 0.035, 0.999, -4328.062, 973.492)" fill="#210e15"/>
      <g id="Group_597" data-name="Group 597">
        <path id="Path_1296" data-name="Path 1296" d="M-262.608,4874.271c31.021.375,68.353,33.759,68.353,33.759l-77.17,32.07-56.751-27.341s-5.214-48.322,6.5-54.662S-277.628,4862.763-262.608,4874.271Z" fill="#73799f"/>
        <path id="Path_1293" data-name="Path 1293" d="M-6632.483,673.425c4.214-14.24,52.172-74.765,52.172-74.765s76,70.191,87.516,68.158,26.878,0,30.492,4.517,8.583,25.3-2.259,33.655-24.213,24.3-38.237,25.011-25.891-6.353-40.643-8.83-32.71.779-45.052-3.951S-6635.5,683.635-6632.483,673.425Z" transform="matrix(0.978, -0.208, 0.208, 0.978, 5987.293, 2907.648)" fill="#73799f"/>
      </g>
      <path id="Path_1294" data-name="Path 1294" d="M20.415,0C5.163,0,0,14.05,0,25.782s23.995,17.16,39.247,17.16S65.293,36.43,62.83,25.782,35.667,0,20.415,0Z" transform="translate(-330.71 4903.53) rotate(12)" fill="#210e15"/>
      <path id="Path_1295" data-name="Path 1295" d="M13.376,5.466c14.079-7.216,32.911-8.1,35.551,2.288S39.951,33.8,28.863,39.433,8.272,49.464,2.816,43.657-.7,12.682,13.376,5.466Z" transform="translate(-254.256 4900.848) rotate(10)" fill="#210e15"/>
    </g>
    <path id="Path_1300" data-name="Path 1300" d="M3.763-311.106q-.755,0-4.909.378t-5.664-.378a17.969,17.969,0,0,1-4.909-1.133,41.167,41.167,0,0,1-4.909-1.888q-2.266-.755-7.174-3.021t-9.44-4.909q-4.531-2.643-8.307-4.909a32.113,32.113,0,0,1-4.531-3.021l-2.266-2.643q-2.266-2.643-5.286-6.042t-6.041-6.419l-5.286-5.286a3.67,3.67,0,0,0-.755-1.888,4.653,4.653,0,0,1-.755-2.643q-1.51-2.266-2.643-10.2A75.51,75.51,0,0,0-71-375.3a6.045,6.045,0,0,0,2.643-4.531,7.544,7.544,0,0,1,1.888-4.531q17.369-32.473,52.108-47.577.755-.755,5.664-1.133t6.419-1.133a21.029,21.029,0,0,0,4.531-1.51q3.776-1.51,7.929-3.021t7.929-3.021a21.031,21.031,0,0,1,4.531-1.51q1.51-1.51,6.8-1.888t6.8-1.133a9.3,9.3,0,0,0,4.154-1.51q2.643-1.51,2.643-3.021,1.51-2.266-1.133-9.44t-6.041-15.481q-3.4-8.307-6.8-15.481t-4.154-9.44q-.755-.755-2.266-6.419T20.377-513.5q-.755-1.51-4.154-6.8T9.05-531.243q-3.776-5.664-7.552-10.95a72.79,72.79,0,0,1-4.531-6.8q-.755-1.51-2.643-6.042t-4.154-9.818q-2.266-5.286-4.154-9.44t-1.888-5.664q0-.755-.755-6.419t-1.888-12.461q-1.133-6.8-2.266-13.971t-1.888-10.95q-1.51-1.51-1.51-4.909t3.776-4.154l3.021-9.062q2.266-6.8,5.286-13.971t5.286-13.593a44.481,44.481,0,0,1,3.776-8.685A40.715,40.715,0,0,1,.743-685.3q3.021-4.909,6.419-9.44t6.419-8.307a37.773,37.773,0,0,0,3.776-5.286L70.22-753.645l6.8-3.4q5.286-2.643,12.083-5.664t13.593-5.286q6.8-2.266,10.573-3.776a66.9,66.9,0,0,0,8.685-1.51q7.174-1.51,15.859-3.021t17.747-2.643q9.062-1.133,13.593-1.888a42.609,42.609,0,0,1,22.278,3.021,146.217,146.217,0,0,1,20.768,10.573,31.586,31.586,0,0,1,7.174,6.041,18.377,18.377,0,0,0,7.929,5.286q.755,2.266,2.643,10.2t2.643,10.195a3.077,3.077,0,0,0,.755,2.266q.755,2.266,1.51,2.266v4.531q0,.755.378,4.153t.755,7.552q.378,4.154.755,7.174t1.133,3.776q.755,8.307-5.664,18.5t-8.685,16.236q-1.51,1.51-3.021,7.552a49.307,49.307,0,0,1-2.266,7.552q-.755,3.021-4.909,10.2t-5.664,8.685l4.531,2.266q-3.021,1.51-12.838,6.8t-12.083,7.552a13.888,13.888,0,0,1-4.154,1.133,31.221,31.221,0,0,1-4.153.378H145.738q-6.042,5.286-10.95,2.266t-10.195-6.8a6.311,6.311,0,0,1-2.643-6.041,23.243,23.243,0,0,1,1.888-7.174,32.9,32.9,0,0,1,4.154-6.8,56.648,56.648,0,0,1,4.154-4.909l4.531-4.531q3.776-3.776,7.929-8.307t8.685-8.685q4.531-4.154,6.8-6.419l3.021-1.51a4.087,4.087,0,0,0,1.888-1.51,1.209,1.209,0,0,1,1.133-.755,12.368,12.368,0,0,0,1.51-1.888,18.3,18.3,0,0,1,2.266-2.643,11.837,11.837,0,0,1,3.021-2.266,6.483,6.483,0,0,0,1.133-3.4,6.484,6.484,0,0,1,1.133-3.4q.755-.755,4.909-6.8t4.909-6.8q.755-1.51,3.021-8.307l3.021-9.062q2.266-4.531,4.531-9.817t-4.531-9.062a31.134,31.134,0,0,0-9.062-4.909q-5.286-1.888-9.062,2.643-1.51.755-6.419,6.419t-6.419,6.419q-15.859,12.083-31.718,23.411T95.141-675.861a204.68,204.68,0,0,0-21.523,35.494A186.362,186.362,0,0,0,59.647-600.72,124.527,124.527,0,0,0,57-561.073,71.835,71.835,0,0,0,70.22-525.579Q82.3-500.658,89.1-487.064t10.2,19.635q3.4,6.042,4.531,7.174l1.133,1.133a40.953,40.953,0,0,0,8.307-4.531q3.021-2.265,6.419-4.909t8.685-6.8q5.286-4.153,15.859-11.705t28.319-18.88q17.747-11.328,45.689-28.7l50.6-45.311q5.286-5.286,13.593-1.51t9.817,9.817q.755,12.083-.755,18.5a24.03,24.03,0,0,1-5.664,10.95,60.256,60.256,0,0,1-9.44,8.307,70.618,70.618,0,0,0-11.328,10.573l-76.274,43.046Q163.863-462.9,151.4-456.479a167.855,167.855,0,0,1-18.88,8.685q-6.419,2.266-10.573,4.154t-13.216,9.44q6.041,15.1,6.041,23.033a185.88,185.88,0,0,0,1.51,20.768v24.921q-.755.755-6.8,9.062t-9.817,13.593l-2.266,2.266a8.786,8.786,0,0,0-1.51,2.266H88.344q-.755.755-3.4,3.021t-3.4,3.021q-2.266,1.51-7.174,4.531T63.8-321.3q-5.664,3.4-10.573,6.419a40.716,40.716,0,0,1-7.174,3.776q-9.062,3.776-21.523,2.266T3.763-311.106Zm-18.124-27.187q5.286,1.51,16.236,2.266t13.216,0q.755,0,4.531-1.888t8.685-4.154l9.817-4.531q4.909-2.265,7.929-3.776a30.075,30.075,0,0,0,9.062-7.552,27.636,27.636,0,0,0,6.041-11.328,44.008,44.008,0,0,0,0-16.237q-1.51-7.929-3.021-16.992v-2.266q-.755-3.776-2.266-10.573a59.12,59.12,0,0,1-1.51-8.307,2,2,0,0,0-2.266-2.266,24.123,24.123,0,0,1-5.664,1.51,38.609,38.609,0,0,1-6.419.755H38.5a35.065,35.065,0,0,0-6.041-1.888,15.847,15.847,0,0,0-7.552-.378q-2.266.755-10.573,3.4T3.763-418.342a41.826,41.826,0,0,1-4.909,3.4q-4.154,2.643-5.664,3.4H-9.075L-41.548-390.4q-1.51.755-3.776,4.531t-2.266,6.042q-1.51,6.8,4.154,17.747T-31.73-348.11q2.266,1.51,9.062,5.664T-14.361-338.293ZM291.489-368.5a29.64,29.64,0,0,1-11.328-4.531,123.546,123.546,0,0,1-11.705-8.307,119.4,119.4,0,0,1-9.817-8.685,30.031,30.031,0,0,1-5.664-7.174,77.485,77.485,0,0,1-4.154-7.552q-2.643-5.286-5.664-10.95t-5.664-10.95a67.959,67.959,0,0,1-3.4-7.552q-2.266-3.776-1.888-6.8t-2.643-6.8q0-2.265-.378-7.552t-.378-11.705q0-6.419.378-11.705t.378-7.552a59.106,59.106,0,0,1,1.133-7.552q1.133-6.041,2.643-12.838t2.643-12.838a59.109,59.109,0,0,0,1.133-7.552,40.063,40.063,0,0,0-.378-4.531,3.112,3.112,0,0,1,2.643-3.776l7.552-22.656q3.776-1.51,1.888-4.531t1.888-3.776l9.817-27.187q2.266-3.776,3.776-6.8a19.061,19.061,0,0,0,2.266-4.531q.755-2.266,1.51-2.266l33.228-54.373,30.963-33.228q1.51-5.286,6.041-5.286,1.51-2.266,6.419-6.042t10.2-8.307q5.286-4.531,9.817-8.307t6.8-5.286a40.7,40.7,0,0,0,7.174-3.776q4.909-3.021,10.95-6.042l11.328-5.664a67.931,67.931,0,0,1,7.552-3.4,147.493,147.493,0,0,1,18.88-3.4q9.817-1.133,19.635-2.643a18.6,18.6,0,0,1,9.062.755,26.452,26.452,0,0,0,8.307,1.51L493.879-739.3q.755,0,1.888,2.266l1.888,3.776a118.657,118.657,0,0,1,6.042,25.676,78.746,78.746,0,0,1-1.51,26.431l-2.643,5.286q-1.888,3.776-1.888,4.531a54.971,54.971,0,0,1-.755,6.419q-.755,4.909-1.133,10.573t-1.133,10.573q-.755,4.909-.755,5.664a8.194,8.194,0,0,0-1.51,3.021,12.358,12.358,0,0,0-.755,3.021q-1.51,2.266-7.174,10.2t-7.93,10.95l-4.154,4.153-3.4,3.4q-3.021,1.511-10.2,2.266t-9.44,0q-1.51-.755-6.8-3.021t-6.8-3.021a16.2,16.2,0,0,1-3.776-3.021q-2.266-2.266-2.266-3.021l41.535-74.008q0-.755,1.133-8.685t1.888-12.461v-5.286h-2.266q-.755,1.51-6.041,6.8l-6.8,6.8a72.28,72.28,0,0,1-7.174,2.643q-5.664,1.888-6.419,2.643a25.5,25.5,0,0,0-4.531,3.4q-3.021,2.643-6.8,5.664t-7.174,6.042a54.886,54.886,0,0,1-5.664,4.531,51.473,51.473,0,0,0-12.461,16.614q-4.154,9.062-16.237,14.348L351.9-598.832a12.091,12.091,0,0,1-3.021,7.552,16.709,16.709,0,0,1-6.8,5.286l-26.432,50.6L286.2-424.384l3.776,22.656q0,.755,1.51,2.266l2.266,2.266a12.244,12.244,0,0,1,1.888,3.4q1.133,2.643,1.888,2.643a18.057,18.057,0,0,0,13.593,2.266q7.552-1.51,13.593-2.266,1.51,0,10.95-.755t10.95-1.51q1.51-.755,10.2-2.643t10.95-3.4a47.292,47.292,0,0,1,6.419-3.4q4.154-1.888,9.44-3.776a66.305,66.305,0,0,0,9.44-4.154q4.154-2.265,6.419-3.776l63.436-43.046,67.212-60.415,14.349-13.594q3.021,1.51,4.531,6.042a13.781,13.781,0,0,1,.755,7.552q0,1.51-2.266,7.929t-3.021,9.44a72.781,72.781,0,0,1-4.531,6.8,72.785,72.785,0,0,0-4.531,6.8q0,.755-3.776,3.776t-3.776,3.776a377.007,377.007,0,0,1-36.249,35.871,332.892,332.892,0,0,1-41.535,31.34,195.67,195.67,0,0,1-29.452,16.237,387.854,387.854,0,0,1-36.249,14.349A363.439,363.439,0,0,1,347-371.143a200.552,200.552,0,0,1-33.606,4.909A44.76,44.76,0,0,1,291.489-368.5Zm9.817-58.149a70.675,70.675,0,0,1,1.888-26.054,84.245,84.245,0,0,0,2.643-26.054,36.609,36.609,0,0,1,1.51-7.929q1.51-5.664,3.4-11.705t3.776-11.328q1.888-5.286,2.643-7.552,0-2.265,3.021-7.552a37.576,37.576,0,0,1,4.531-6.8q1.51,1.51,3.4-2.266t4.154-9.062q2.266-5.286,4.154-9.817t3.4-5.286v1.51l-18.88,62.68a2.176,2.176,0,0,1-.755,1.51l-1.51,1.51h-1.51a59.416,59.416,0,0,1,1.51-9.44q1.51-7.174,2.266-9.44v-6.041l-2.266,1.51-9.817,30.963a57.18,57.18,0,0,1-.378,19.635,173.309,173.309,0,0,0-2.643,20.39q-.755,2.265-.755,12.461t.755,13.971h-2.266q-.755,0-1.51-3.4A29.64,29.64,0,0,1,301.307-426.65Zm21.9-95.153q2.266-3.776,1.51-5.286a2.176,2.176,0,0,1-.755,1.51,2.176,2.176,0,0,0-.755,1.51ZM533.149-391.911A16.59,16.59,0,0,1,529-395.687q-2.643-3.021-4.154-4.531-20.39-24.921-25.676-54a267.784,267.784,0,0,1-3.776-60.792,84.747,84.747,0,0,1,1.51-11.705q1.51-8.685,3.021-10.95,1.51-4.531,5.664-15.859t9.062-24.166q4.909-12.838,9.44-23.788t6.8-15.481q2.266-4.531,6.419-12.461t8.685-15.859q4.531-7.929,8.685-14.348a62.277,62.277,0,0,1,5.664-7.929l62.68-64.191,3.776-2.266q3.776-2.265,8.307-4.909l9.062-5.286q4.531-2.643,7.552-4.153l3.021-1.51a6.706,6.706,0,0,1,3.021-.755q1.51-.755,6.419-3.4t6.419-3.4a32.738,32.738,0,0,1,4.909,1.133,26.559,26.559,0,0,0,5.664,1.133q1.51.755,8.307.378t8.307-.378q1.51.755,6.419,3.4t6.419,3.4q.755,0,6.042.378t6.042,1.133a18.787,18.787,0,0,1,2.266,3.4,18.781,18.781,0,0,0,2.266,3.4,72.416,72.416,0,0,0,8.307,6.041,72.4,72.4,0,0,1,8.307,6.042,2.176,2.176,0,0,0,.755,1.51,3.352,3.352,0,0,0,.378,1.51,3.351,3.351,0,0,1,.378,1.51,76.205,76.205,0,0,0,6.419,12.838,19.361,19.361,0,0,1,2.643,14.349h1.51q.755,0,2.266-4.153t2.266-6.419a38.637,38.637,0,0,1,.755-5.664q.755-4.153,1.51-4.909.755-1.51,6.041-10.95t8.307-13.971q2.265-3.021,3.776-2.266,3.776.755,10.2,2.266t7.174,2.266l28.7,37a6.527,6.527,0,0,1,4.531,2.266v4.531q0,1.51.755,7.174t1.51,7.174a16.2,16.2,0,0,1,.755-4.153,7.222,7.222,0,0,1,3.021-4.154l4.531,3.776L818.609-571.645q-6.042,1.51-6.041,6.8a41.618,41.618,0,0,1-1.133,7.552q-1.133,5.286-1.888,11.705t-1.888,12.083a47.728,47.728,0,0,0-1.133,7.929,4.374,4.374,0,0,0-.755,3.021,4.373,4.373,0,0,0,.755,3.021q-.755,3.021-2.643,9.44t-3.4,13.971q-1.51,7.552-3.021,13.971a47.1,47.1,0,0,0-1.51,8.685q-.755,1.51-.755,6.419t.755,6.419l3.776-2.266L908.476-577.687q1.51-1.51,4.531-.378t3.776,2.643a10.391,10.391,0,0,1-.378,9.817,48.353,48.353,0,0,0-4.154,9.062,75.516,75.516,0,0,0-1.888,10.195,75.509,75.509,0,0,1-1.888,10.2l-40.025,50.6-20.39,14.349a5.8,5.8,0,0,1-.755,2.266q-.755,1.51-1.51,1.51-1.51,1.51-8.307,8.685t-8.307,8.685q-.755,0-2.266,2.643a18.786,18.786,0,0,1-2.266,3.4q-8.307,8.307-16.614,15.1t-16.614,14.349q-.755,0-4.154,2.643t-4.154,3.4q-1.51,1.51-3.776,7.174t-2.266,7.174a20.492,20.492,0,0,1-16.614,1.888,48.2,48.2,0,0,1-15.1-7.929l-9.44-9.44q-7.929-7.929-10.95-11.705a2.176,2.176,0,0,0-.755-1.51q-1.51-1.51-1.51-2.266a174.475,174.475,0,0,1-7.552-25.676q-2.266-11.328-.755-26.432l-2.266-2.266-74.763,73.253a36.542,36.542,0,0,1-5.664,4.154q-4.154,2.643-8.685,6.042t-8.685,6.419a27.018,27.018,0,0,1-6.419,3.776q-1.51.755-5.664,2.266t-8.685,3.4a71.739,71.739,0,0,1-8.685,3.021q-4.154,1.133-6.419,1.888-1.51.755-7.929.755t-8.685-.755q-1.51-.755-5.664-3.021T547.5-383.6q-4.531-3.021-8.685-5.286T533.149-391.911Zm39.27-18.88a50.806,50.806,0,0,0,14.726,4.531q6.419.755,14.726-4.531,3.776-3.021,11.705-8.307t9.44-6.042l93.643-100.44a26,26,0,0,1,.755-13.971,29.443,29.443,0,0,0,1.51-13.216l18.124-81.56q.755,0,1.51-1.51a5.8,5.8,0,0,0,.755-2.266q.755-1.51,2.266-8.685t2.266-10.2a5.479,5.479,0,0,0-2.643-6.041,37.137,37.137,0,0,1-5.664-4.531,35.234,35.234,0,0,1-1.888-6.419q-1.133-4.909-2.643-10.195t-2.643-9.817a30.984,30.984,0,0,1-1.133-6.8,28.507,28.507,0,0,1-1.51-9.062q0-4.531-5.286-7.552a102.786,102.786,0,0,0-10.2-2.266,102.773,102.773,0,0,1-10.2-2.266,32.993,32.993,0,0,0-7.174.755,9.527,9.527,0,0,0-5.664,3.776,72.281,72.281,0,0,1-4.154,6.419,72.264,72.264,0,0,0-4.154,6.419,2.175,2.175,0,0,1-1.51.755,2.176,2.176,0,0,1-1.51.755h-.755l-50.6,68.722-1.51,2.266L601.87-594.3a2,2,0,0,0-2.266,2.266,86.19,86.19,0,0,1-5.664,9.062q-4.153,6.042-4.909,7.552a29.567,29.567,0,0,1-.755,4.153,29.55,29.55,0,0,0-.755,4.154q-.755,1.51-4.154,6.8t-4.909,7.552l-1.51,2.266a3.077,3.077,0,0,0-.755,2.266q0,1.51.755,1.51l-15.1,33.983a8.97,8.97,0,0,1-.755,7.929,43.572,43.572,0,0,0-3.021,6.419,101.013,101.013,0,0,0-4.154,35.871A298.3,298.3,0,0,0,558.07-427.4q3.021,5.286,5.664,9.817A16.114,16.114,0,0,0,572.418-410.791ZM779.339-448.55q1.51.755,4.531-.755t3.776-3.021l14.349-73.253v-2.266l14.349-79.294h2.266v18.88l10.573-58.149a12.961,12.961,0,0,0,.755-5.286,12.96,12.96,0,0,0-.755-5.286l-1.51-1.51a5.917,5.917,0,0,0-1.51-1.133,5.917,5.917,0,0,1-1.51-1.133.668.668,0,0,0-.755-.755.667.667,0,0,0-.755.755L791.422-521.048a25.608,25.608,0,0,1-3.4,19.635,49.991,49.991,0,0,0-7.174,19.635v8.307q0,1.51-.755,8.307t-.755,8.307Zm52.108-221.27q-1.51,0-1.51,2.266t1.51,2.266q1.51,0,1.51-2.266T831.447-669.819Zm-86.091-6.042q-.755-.755-.755,2.266t.755,2.266a2.419,2.419,0,0,0,1.51-2.266A2.419,2.419,0,0,0,745.356-675.861Zm-6.042-35.494q-.755,0-.755,1.133t.755,1.133Q741.58-709.844,739.314-711.354Zm-3.776-12.083q-1.51,0-1.51,1.888t1.51,1.888q1.51,0,1.51-1.888T735.538-723.437Zm160.1,317.178-2.266-2.266q-.755-1.51-6.041-5.664a58.793,58.793,0,0,0-6.8-4.909,25.693,25.693,0,0,1-5.664-8.307,74.888,74.888,0,0,1-3.4-10.573,52.993,52.993,0,0,0-.755-7.174q-.755-4.909-1.133-10.573t-.755-10.2q-.378-4.531-.378-6.042v-5.664q0-4.154.378-9.44t.755-9.817q.378-4.531.378-6.8a32.487,32.487,0,0,1,.755-6.041q.755-3.776,1.51-8.307t1.51-7.93a23.093,23.093,0,0,1,1.51-4.909L913.007-638.1l38.514-75.519q.755.755,1.133,0a1.21,1.21,0,0,1,1.133-.755q12.083-3.776,18.5-.378t11.705,12.461l10.573,15.859q0,1.51,1.888,6.042t1.888,6.042a25.694,25.694,0,0,0-5.664,8.307,8.779,8.779,0,0,0,.378,8.307q-1.51,2.266-4.531,10.573t-3.776,10.573a59.111,59.111,0,0,1-1.51,8.307,59.119,59.119,0,0,0-1.51,8.307q-1.51,6.042-4.909,8.307t-3.4,10.573q2.266,2.266,4.531,0a36.205,36.205,0,0,0,3.021-4.153,36.211,36.211,0,0,1,3.021-4.154l.755-1.51a.668.668,0,0,1,.755-.755q7.552-7.552,14.726-15.481a203.194,203.194,0,0,1,14.726-14.726,18.954,18.954,0,0,1,6.042-5.286,9.551,9.551,0,0,0,4.531-5.286l84.581-75.519q20.39-18.124,32.851-29.075a155.4,155.4,0,0,1,22.656-16.992,78.878,78.878,0,0,1,20.39-8.685,237.007,237.007,0,0,1,27.564-4.909q11.328-1.51,15.481,6.8a84.6,84.6,0,0,1,6.419,17.369q1.51,1.51,1.51,5.664a21.236,21.236,0,0,1-.755,6.419,61.144,61.144,0,0,0-4.154,8.307q-2.643,6.041-5.664,12.838t-5.664,12.838a61.158,61.158,0,0,1-4.154,8.307q0,1.51-2.266,4.153a23.1,23.1,0,0,0-3.021,4.154l-40.78,80.05q-12.838,25.676-8.685,37t18.88,11.705q14.726.378,36.249-7.552a238.228,238.228,0,0,0,41.913-20.39,228.431,228.431,0,0,0,36.626-27.564q16.237-15.1,20.768-27.942.755-2.266,2.266-1.51a9.48,9.48,0,0,1,3.021,2.643,23.32,23.32,0,0,1,2.643,4.154q1.133,2.266.378,3.021a186.409,186.409,0,0,1-38.137,40.025,240.786,240.786,0,0,1-43.8,27.187,256.089,256.089,0,0,1-43.423,16.236q-21.145,5.664-37,6.419a83.1,83.1,0,0,0-12.838.755q-4.531.755-12.838-2.266a27.784,27.784,0,0,1-8.307-2.266l-7.552-3.021A72.458,72.458,0,0,1,1108.6-575.8q-6.8-7.93-6.8-16.237,0-24.166,3.776-40.4a114.455,114.455,0,0,1,11.328-29.83q7.552-13.593,17.369-28.319t22.656-35.116a17.48,17.48,0,0,0,2.266-3.776l2.266-4.531-28.7,18.125-101.95,90.622q-1.51,1.51-5.664,6.042t-5.664,6.041q0,.755-1.888,2.266t-1.888,2.266q-3.776,3.776-8.685,9.44t-10.2,11.328q-5.286,5.664-9.062,9.817l-3.776,4.154.755,1.51q1.51,1.51,3.4,0a26.7,26.7,0,0,0,3.776-3.776,26.7,26.7,0,0,1,3.776-3.776q1.888-1.51,3.4,0l-40.025,43.046a22.775,22.775,0,0,0-2.643,6.042,40.193,40.193,0,0,0-1.51,7.929,33.438,33.438,0,0,1-1.51,7.552q-1.133,3.4-2.643,4.153A160.217,160.217,0,0,0,941.7-478q-3.021,18.124,2.266,33.228l5.286-2.266a26.212,26.212,0,0,0,.755,10.573,26.285,26.285,0,0,1,6.419-1.51q4.909-.755,1.888,3.776-3.021,3.021-10.573,13.216t-10.573,13.971l-2.266,2.266q-1.51,1.51-2.266,1.51-11.328,3.021-18.88,1.51a109.287,109.287,0,0,1-15.859-4.531Zm46.822-30.207q0,2.266,1.51,2.266l.755-6.042h-2.266Zm33.983-126.871q0-1.51-1.51-.378t-.755,1.888q.755.755,1.888,0T976.443-563.338Zm6.042-6.8q-1.51,0-1.888,2.266t1.133,2.266q1.51,0,1.888-2.266T982.484-570.135Zm374.572,309.626q-12.838-8.307-26.054-18.5a147.147,147.147,0,0,1-23.789-23.033q-1.51-3.021-4.909-10.573t-7.174-16.236q-3.776-8.685-6.8-16.237a72.332,72.332,0,0,1-3.776-11.328q-1.511-11.328-3.021-21.9-1.51-9.062-3.021-18.5t-2.266-15.481v-2.266q-1.51-10.573-2.643-23.788a105.439,105.439,0,0,1,.378-23.788L1290.6-598.077v-2.266l37.759-141.975q9.817-37,21.145-61.548t21.523-39.647q10.195-15.1,18.88-22.656t13.216-11.328q18.879-15.1,33.228-16.614t23.788,4.909a36.351,36.351,0,0,1,13.593,16.614q4.153,10.2,2.643,17.747-3.021,2.266-8.685,13.216t-12.461,25.3q-6.8,14.349-13.593,30.207t-12.461,28.7q-5.664,12.838-8.307,19.257t-1.133,2.643q-.755,2.266-2.643,9.062t-3.776,14.726q-1.888,7.93-3.776,14.726t-1.888,9.062q1.511,5.286-.755,8.685a33.082,33.082,0,0,0-3.776,7.929,31.824,31.824,0,0,1-.755,5.286,31.822,31.822,0,0,0-.755,5.286v8.307q-.755,1.51-3.4,7.552t-3.4,6.8V-623a12.359,12.359,0,0,1-.755,3.021,8.2,8.2,0,0,1-1.51,3.021,1.21,1.21,0,0,1-.755,1.133,4.085,4.085,0,0,0-1.51,1.888l-1.51,3.021a56.024,56.024,0,0,0-2.266,11.328,48.349,48.349,0,0,0,0,12.083l-12.083,85.336a79.94,79.94,0,0,1-4.531,37.759v54.373a51.192,51.192,0,0,1-1.133,7.174,51.2,51.2,0,0,0-1.133,7.174v39.27q0,2.266.378,7.174t.755,9.44q.378,4.531.755,8.307t.378,4.531q1.51,6.041,4.531,16.614t3.776,10.573h2.266l14.349-10.573,56.639-73.253L1505.828-491.6a9.279,9.279,0,0,1,.755-3.4,8.655,8.655,0,0,0,.755-2.643q1.51-3.021,6.419-11.705t6.419-11.705a5.628,5.628,0,0,1,6.042-2.266,23.01,23.01,0,0,1,7.552,5.286q3.776,3.776,3.021,7.552a26.391,26.391,0,0,0-.755,6.419,36.617,36.617,0,0,1-.755,7.174,46.9,46.9,0,0,0-.755,9.062q-.755,2.266-1.888,6.8t-3.021,9.817q-1.888,5.286-3.4,9.44t-2.266,5.664a33.12,33.12,0,0,1-3.776,6.8q-3.021,4.531-6.8,9.817t-7.174,10.2a54.615,54.615,0,0,1-4.909,6.419,28.6,28.6,0,0,1-7.552,14.726q-6.042,6.419-11.328,12.461a2.176,2.176,0,0,1-.755,1.51,2.176,2.176,0,0,0-.755,1.51.667.667,0,0,1-.755.755,48.318,48.318,0,0,1-6.419,13.593,36.264,36.264,0,0,0-5.664,13.593l-22.656,27.187v2.266l-6.041,16.614a38.726,38.726,0,0,1-9.062,14.349q-.755,1.51-5.286,5.664t-5.286,4.909l-3.776,7.552q-3.021,6.041-4.531,7.552a11.834,11.834,0,0,1-3.021,2.266l-3.021,1.51-12.838,12.838a34.457,34.457,0,0,1-17.747,6.8A25.918,25.918,0,0,1,1357.056-260.509Zm2.266-45.311a29.312,29.312,0,0,1,1.51,3.776,29.267,29.267,0,0,0,1.51,3.776l1.51,4.531h6.041v-10.573q-.755-3.021-4.909-3.021t-5.664-3.021Zm6.8-6.8a2.176,2.176,0,0,0,.755,1.51.668.668,0,0,0,.755.755q1.51-5.286-1.51-6.042a3.078,3.078,0,0,0-.755,2.266Q1365.363-312.616,1366.118-312.616Zm-9.062-1.51q-1.51,0-1.51,1.888t1.51,1.888q1.51,0,1.51-1.888T1357.056-314.127Zm-6.042-12.838q.755,1.51,2.266,4.909t2.266,3.4h1.51q.755-3.776.755-14.726t-.755-14.726a23.132,23.132,0,0,0-.378-3.021,5.774,5.774,0,0,0-1.133-3.021q-4.531,1.51-2.266,6.419t-2.266,6.419Zm12.838-27.187q-1.511,0-1.51,2.266t1.51,2.266q1.51,0,1.51-2.266T1363.853-354.152Zm-10.573-3.776q-1.51,0-1.51,1.888t1.51,1.888q1.51,0,1.51-1.888T1353.28-357.928Zm0-4.531a18.162,18.162,0,0,0,7.929-16.237,160.6,160.6,0,0,1,.378-19.257q0-1.51.378-7.174t.755-12.461q.378-6.8.755-12.461t.378-7.174V-450.06q.755-19.635,3.021-38.514a196.224,196.224,0,0,0,.755-38.514l-1.51,2.266-1.133,6.042q-1.133,6.042-2.266,14.349t-1.888,17.369q-.755,9.062-1.51,14.348v12.083q-.755,10.573-1.888,20.012t-1.888,20.012v27.187a9.12,9.12,0,0,1-1.133,3.021,9.115,9.115,0,0,0-1.133,3.021Zm14.349-170.672a30.281,30.281,0,0,0,4.531-12.838,54.708,54.708,0,0,0,0-12.838q-.755,3.021-2.266,11.705t-2.266,11.705Zm6.8-61.17q-.755,3.021-.755,12.838t.755,12.838a49.263,49.263,0,0,0,5.664-18.125q1.133-9.817,2.643-17.369v-6.8h-2.266q-.755,0-3.021,6.419A79.567,79.567,0,0,0,1374.426-594.3Zm9.817-28.7q-1.511,0-1.51,1.888t1.51,1.888q1.51,0,1.51-1.888T1384.243-623Zm0-4.531a48.336,48.336,0,0,0,7.552-21.145,106.418,106.418,0,0,1,5.286-22.656,17.213,17.213,0,0,1,3.776-6.8q2.266-2.266.755-7.552-3.021-1.51-4.531,2.266l-12.838,47.577Zm18.88-72.5q-1.511,0-1.51,1.888t1.51,1.888q1.51,0,1.51-1.888T1403.123-700.027Zm121.585,322.464q-2.265-1.51-9.817-7.93t-9.062-8.685a32.1,32.1,0,0,1-3.021-4.531q-2.266-3.776-5.286-8.685t-5.664-9.818q-2.643-4.909-4.154-7.929a65.663,65.663,0,0,1-7.929-22.278q-1.888-11.705-2.643-23.788,0-.755-.378-5.286t-.755-9.44q-.377-4.909-.755-9.062t-.378-5.664a79.859,79.859,0,0,1,1.888-27.942q3.4-13.593,6.419-27.942v-6.042a36.623,36.623,0,0,1,2.643-7.929q1.888-4.154,3.4-7.174a8.2,8.2,0,0,0,1.51-3.021,12.361,12.361,0,0,0,.755-3.021v-4.531a17.49,17.49,0,0,0,2.266-3.776l2.265-4.531a184.107,184.107,0,0,0,8.307-17.369q3.776-9.062,8.307-18.125l1.51-1.51q6.042-9.817,9.817-17.369t9.062-16.614l1.51-.755a.667.667,0,0,0,.755-.755q.755-.755,3.4-4.154t2.643-4.153l2.266-2.266a53.12,53.12,0,0,0,5.286-7.552q3.776-6.042,5.286-6.8l9.062-9.062L1575.3-715.13q6.041-6.041,11.328-10.573t6.8-6.042a38.744,38.744,0,0,1,5.286-3.4q4.531-2.643,10.2-6.042t11.328-6.419a69.748,69.748,0,0,0,8.685-5.286,17,17,0,0,0,3.4-.755,8.639,8.639,0,0,0,3.4-1.51,3.671,3.671,0,0,0,1.888-.755,3.669,3.669,0,0,1,1.888-.755,50.309,50.309,0,0,1,8.307-1.51q6.042-.755,12.838-1.888t12.461-1.888a49.145,49.145,0,0,0,7.929-1.51h4.531q3.776.755,11.705,1.51t9.44.755a48.035,48.035,0,0,1,10.195,3.776q6.419,3.021,7.929,6.8L1737.67-717.4v2.266l-3.776,15.1a56.142,56.142,0,0,0-2.266,9.817l-31.718,48.332q-1.51,1.51-5.286,4.909t-4.531,4.909a6.527,6.527,0,0,0-2.266,4.531,65,65,0,0,1-5.664,6.8q-4.154,4.531-9.44,9.817t-9.817,10.195a45.705,45.705,0,0,1-6.8,6.419,38.712,38.712,0,0,1-5.286,3.4q-4.531,2.643-10.2,6.042l-11.328,6.8q-5.664,3.4-8.685,4.909-.755.755-6.042,1.888t-6.042,1.888l-7.552,7.552-7.552,7.552q-2.266,1.51-10.195,6.042t-10.2,6.042a22.305,22.305,0,0,1-13.593,1.888q-7.552-1.133-11.328,4.909a19.723,19.723,0,0,0-3.021,4.154,9.3,9.3,0,0,0-1.51,4.154L1531.5-465.164q-.755,1.51-.755,6.419t.755,6.419q0,3.021,2.266,12.461t3.776,12.461a2,2,0,0,0,2.266,2.266,2.176,2.176,0,0,1,1.51.755q0,.755,1.51.755a.668.668,0,0,1,.755.755q1.51,2.266,0,3.4t2.265,2.643l2.266-4.531a23.853,23.853,0,0,0,13.216,7.174,46.119,46.119,0,0,0,15.481-.378q5.286-.755,13.593-1.888t16.236-2.643q7.93-1.51,13.971-2.643t6.8-1.133l87.6-56.639a30.133,30.133,0,0,1,5.664-5.664q3.4-2.643,6.419-4.909l94.4-106.481h12.083q.755,0,2.266,4.909t2.266,7.929a12.85,12.85,0,0,1-1.51,8.307,106.209,106.209,0,0,1-5.664,9.817q-3.4,5.286-6.8,9.817a52.625,52.625,0,0,0-4.909,7.552v3.776l-64.946,69.477-2.266,3.776-93.643,67.212q-.755,0-6.041,2.643t-12.838,6.042q-7.552,3.4-15.1,6.419t-12.083,5.286a9.291,9.291,0,0,1-3.776,1.51,20.653,20.653,0,0,1-4.531.755h-12.083a31.825,31.825,0,0,0-5.286.755,73.737,73.737,0,0,1-8.307,1.133q-4.531.378-8.685,1.133a47.184,47.184,0,0,1-4.909.755,171.854,171.854,0,0,0-20.39,4.154Q1534.525-370.766,1524.707-377.562Zm146.506-47.577q-2.266,0,0,2.266l16.614-8.307q-3.021-1.51-9.062.755T1671.214-425.139ZM1560.2-562.583l6.8-2.266,74.763-46.066,49.842-56.639q3.776,1.51,4.531-2.266a12.087,12.087,0,0,0,0-6.042,114.368,114.368,0,0,0,13.593-24.166,51.886,51.886,0,0,0,3.021-27.942,36.16,36.16,0,0,0-4.154-8.685q-3.4-5.664-8.685-3.4-1.51.755-7.174,3.776t-7.174,4.531a55.329,55.329,0,0,1-6.419,5.286,63.3,63.3,0,0,0-7.552,6.419L1665.55-714l-2.643,2.643q-6.042,8.307-14.726,19.635t-16.992,21.9q-8.307,10.573-13.971,17.747t-6.419,7.929l-46.066,62.681a13.121,13.121,0,0,0-2.643,4.154q-1.133,2.643-1.888,4.153Zm125.361-86.091q-1.51,0-1.51,2.266t1.51,2.265q1.51,0,1.51-2.265T1685.562-648.674Zm-70.987-9.817q2.266-.755,6.419-4.154t8.685-7.552a63.481,63.481,0,0,0,7.929-8.685,28.412,28.412,0,0,0,4.154-6.8q-2.266-.755-6.042,1.133a27.733,27.733,0,0,0-7.174,5.286,73.219,73.219,0,0,0-6.041,6.8,35.6,35.6,0,0,0-3.4,4.909Zm31.718-33.983,1.51-1.51h-1.51Zm158.589,379.858a104.31,104.31,0,0,1-20.39-7.174,88.481,88.481,0,0,1-18.88-11.705,28.414,28.414,0,0,1-8.307-9.062,28.413,28.413,0,0,0-8.307-9.062,110.379,110.379,0,0,1-7.552-29.075q-1.51-13.971-3.021-29.83V-412.3l14.349-81.56v-8.307l2.265-2.266,10.573-46.066v-1.51l12.083-58.9,2.266-3.776,73.253-229.576a36.068,36.068,0,0,0-20.012,2.643,76.2,76.2,0,0,1-20.012,5.664h-9.818l-25.676-24.921q-3.021-3.776-1.888-10.573t6.419-8.307l48.332-12.838q0,.755,1.51.755a3.077,3.077,0,0,0,2.266-.755q1.51,0,8.307-1.888t8.307-1.888h2.266q3.021-.755,7.552-1.51t9.062-1.888a71.065,71.065,0,0,0,7.552-2.266l3.021-1.133,2.266-1.51,1.888-3.776,4.154-8.307q2.266-4.531,4.531-9.44t3.776-7.93a5.613,5.613,0,0,0,1.51-4.153,4.738,4.738,0,0,1,2.266-4.154l25.676-62.68a9.877,9.877,0,0,1,4.531-4.531,12.17,12.17,0,0,1,5.286-1.51,44.4,44.4,0,0,1,10.573-.378q6.8.378,10.573,2.643a21.116,21.116,0,0,1,3.776,2.643q2.266,1.888,2.265,3.4.755.755.378,4.154t-.378,4.154l.755.755,1.51,1.51a19.8,19.8,0,0,0,2.266,3.4q1.51,1.888,2.266,2.643a10.331,10.331,0,0,1-.378,2.266q-.378,1.51.378,1.51,0,1.511,1.888,5.664a22.173,22.173,0,0,1,1.888,4.909v6.8q-.755,3.021-3.776,13.971t-4.531,14.726q0,.755-1.888,4.154t-1.888,4.154a23.409,23.409,0,0,0-1.51,4.531,22.693,22.693,0,0,0-.755,3.776q3.776,1.51,6.041-1.51l14.349-31.718,2.266-2.266q1.51,8.307-4.154,16.614t-4.154,17.369h6.042l333.792-62.68h17.37a41.623,41.623,0,0,0-7.552,1.133q-5.286,1.133-11.328,2.643t-11.328,2.643q-5.287,1.133-7.552,1.888-3.776.755-6.8,1.51a29.517,29.517,0,0,0-6.042,2.266h6.8q2.265-.755,9.062-2.266t14.349-3.021q7.552-1.511,14.349-3.021t9.817-2.266h16.614l2.266,2.266h16.614l2.266,2.266q-3.021.755-9.818,2.266t-14.348,3.4q-7.552,1.888-14.349,3.021t-9.817,1.888h-22.655l-68.722,14.349h6.042q4.531-.755,15.859-2.266t23.788-3.4q12.461-1.888,23.789-3.021t15.859-1.888h33.228q-2.265.755-7.552,2.643t-11.328,3.776q-6.042,1.888-11.328,3.776t-7.552,2.643q-3.021,1.51-7.929,4.531t-8.685,1.51v-2.266q-3.776-.755-5.664.755a12.765,12.765,0,0,0-3.021,3.4,15.7,15.7,0,0,1-2.266,3.021q-1.133,1.133-3.4-.378l-308.871,66.456h-2.265q-2.266.755-7.552,2.266a49.967,49.967,0,0,0-6.8,2.266.667.667,0,0,1-.755.755,2.175,2.175,0,0,1-1.51.755L1900.79-731.745a.667.667,0,0,0-.755.755,2.176,2.176,0,0,0-.755,1.51,49.279,49.279,0,0,0-2.266,7.174,49.258,49.258,0,0,1-2.266,7.174v4.531a16.826,16.826,0,0,1-1.51,4.154,60.3,60.3,0,0,0-2.643,7.174,60.364,60.364,0,0,1-2.643,7.174,16.824,16.824,0,0,0-1.51,4.154v4.531a13.246,13.246,0,0,1-1.51,3.776l-2.265,4.531q-3.021-2.265-2.266-4.531a135.906,135.906,0,0,0,4.153-13.971q2.643-10.195,4.154-13.216a2.176,2.176,0,0,1,.755-1.51q2.266-2.266,1.51-2.266a37.69,37.69,0,0,1,.755-4.531q.755-3.776,1.888-8.307t2.266-7.929a17.965,17.965,0,0,0,1.133-4.909q.755-1.51,3.021-6.8t5.286-11.705q3.021-6.419,5.286-11.705t3.021-6.8a22.7,22.7,0,0,1,.755-3.776,23.408,23.408,0,0,1,1.51-4.531v-2.266l28.7-77.029v-4.531h-1.51a22.473,22.473,0,0,0-2.266,3.021,22.5,22.5,0,0,1-2.266,3.021L1900.79-761.2q2.266,2.266,0,2.266-4.531,12.838-9.44,24.921t-8.685,24.921q-2.266,2.265,0,4.531l-29.452,87.6a28.344,28.344,0,0,0-6.042,15.1,150.25,150.25,0,0,1-2.266,15.859,21.991,21.991,0,0,1-1.133,5.286q-1.133,3.776-2.266,8.307t-1.888,8.685a47.156,47.156,0,0,0-.755,4.909v2.266q1.51,3.021,2.643-1.888t3.4-6.419v2.266a26.337,26.337,0,0,1-1.133,4.531q-1.133,3.776-2.266,7.929t-1.888,7.929a37.663,37.663,0,0,0-.755,4.531q-2.266,9.062-5.286,18.124a42.4,42.4,0,0,0-1.51,19.635l-6.042-6.8a119.354,119.354,0,0,0-3.776,14.349,50.817,50.817,0,0,0-.755,15.1q.755,1.51,1.888-.378a30.59,30.59,0,0,0,2.266-4.909q1.133-3.021,2.266-5.664a6.415,6.415,0,0,1,2.643-3.4,33.936,33.936,0,0,1-.755,12.083,18.468,18.468,0,0,1-6.042,10.573l-2.265-3.776q-4.531,3.021-4.531,9.817a56.989,56.989,0,0,0,.755,10.573q2.266-1.51,3.4-6.8t4.909-3.776v2.266q-.755,4.531-1.888,12.083t-2.643,15.481q-1.51,7.93-2.643,13.971t-1.133,6.8a35.054,35.054,0,0,0-1.888,6.042q-1.133,4.531-2.643,6.042a55.318,55.318,0,0,1,1.51-18.124,40.853,40.853,0,0,0,.755-17.369h-2.265a97.2,97.2,0,0,1-2.266,12.838,76.716,76.716,0,0,0-2.266,10.95q-.755,5.664-1.51,9.44v2.266q0,1.51-.755,7.552t-1.51,7.552q7.552,4.531,4.531,13.216t-2.266,15.481q2.266,2.266,2.266,0l2.266-2.266q.755,0,4.531-1.888t7.929-3.776q4.154-1.888,7.93-3.776a23.07,23.07,0,0,0,4.531-2.643,34.157,34.157,0,0,0,4.531-3.021,45.69,45.69,0,0,0,3.776-3.021l154.058-206.921q.755-.755,4.531-.378t3.776,2.643q.755,1.51.378,6.419t-.378,5.664a13.246,13.246,0,0,0,1.51,3.776l3.021,6.042q1.51,3.021,2.643,5.664a12.3,12.3,0,0,1,1.133,3.4q2.266,2.266,0,4.531a207.471,207.471,0,0,0-12.46,19.635,140.482,140.482,0,0,0-10.2,21.9,50.762,50.762,0,0,0-2.266,8.307,50.767,50.767,0,0,1-2.266,8.307l-1.51,2.266q-3.776,8.307-9.44,18.88t-7.174,18.88L1924.2-391.911q-1.51,1.51,0,2.643a22.08,22.08,0,0,1,2.266,1.888l-60.415,60.415q-10.572-3.021-15.481,3.4a24.345,24.345,0,0,1-11.705,8.685q-10.572,3.776-16.992,4.154T1804.881-312.616Zm56.639-24.921a9.3,9.3,0,0,0,4.153-1.51q2.643-1.51,4.154-2.266a11.832,11.832,0,0,0,3.021-2.266q2.265-2.265,1.51-4.531a27.63,27.63,0,0,1-5.286,4.531,37.759,37.759,0,0,0-5.286,3.776Zm0-14.349q0,.755,1.51,2.266a4.351,4.351,0,0,0,3.021,1.51,7.785,7.785,0,0,0,3.021-1.51,22.506,22.506,0,0,0,3.021-2.266q-1.51-3.021-5.664-3.021T1861.52-351.886Zm30.963-10.573,6.8-6.042a5.7,5.7,0,0,0-3.4,1.51,19.814,19.814,0,0,1-3.4,2.266Zm10.573-10.573,15.1-12.083h-4.531l-10.572,9.817Zm10.572-22.656q1.51-1.51,4.531-4.154a16.592,16.592,0,0,0,3.776-4.154v-2.266a22.5,22.5,0,0,1-3.021,2.266,7.784,7.784,0,0,1-3.021,1.51l-2.266,2.266Zm0-10.573h2.266v-2.266Zm27.187-21.145q-.755-.755-1.888.378t-.378,1.888q1.51.755,2.266,0T1940.815-427.4Zm-125.361-16.614q-1.51,0-1.51,2.266t1.51,2.266q1.51,0,1.51-2.266T1815.454-444.019Zm18.88-93.643q-1.51,0-1.51,1.888t1.51,1.888q1.51,0,1.51-1.888T1834.334-537.662Zm4.531-14.349q-1.51-.755-1.51.755t1.51.755a.668.668,0,0,0,.755-.755A.668.668,0,0,0,1838.865-552.01Zm16.614-43.8q1.51-6.041,4.154-14.726a61.642,61.642,0,0,1,6.419-14.726v8.307q-1.51,4.531-3.776,12.461t-3.021,8.685l-3.776,1.51Zm14.349-43.8q.755-3.021,2.266-7.552l3.021-9.062,3.021-10.573,2.266-2.266v6.042q-1.51,4.531-4.531,13.216t-3.776,10.2l-2.266,1.51ZM1880.4-756.666q-1.51,0-1.51,1.888t1.51,1.888q1.51,0,1.51-1.888T1880.4-756.666Zm323.22-177.469q-1.51,0-1.51,2.266t1.51,2.266q1.51,0,1.51-2.266T2203.62-934.134Zm40.024-6.042a1.335,1.335,0,0,0-1.51-1.51q-1.511,0-.755,1.51Q2241.379-937.91,2243.644-940.176Zm34.739-10.573q-1.51,0-1.51,1.888t1.51,1.888q1.51,0,1.51-1.888T2278.383-950.748Zm-52.108,0q.755-1.51-.755-1.51t-.755,1.51q0,1.51.755,1.51T2226.275-950.748Zm81.56-6.041q-1.51,0-1.51,1.888t1.51,1.888q1.51,0,1.511-1.888T2307.835-956.79Zm-30.962-12.838q0-1.51-1.133-1.51t-1.133,1.51q0,1.51.755,1.51T2276.873-969.628Zm70.987-8.307,1.511-2.266h-1.511Z" transform="translate(-4486.798 8003.667)" fill="#960000"/>
  </g>
</svg>
