<svg xmlns="http://www.w3.org/2000/svg" width="1006.865" height="1534.63" viewBox="0 0 1006.865 1534.63">
  <g id="scarlet_pov" data-name="scarlet pov" transform="translate(788.66 -4083)">
    <path id="Path_1235" data-name="Path 1235" d="M785.872,3243.482l-26.234,189.759-66.232,77.045,12.267-108.656-37.949,123.525s.455-55.194,4.726-74.921-9.64-104.037-9.64-104.037-18.16,23.537-24.58,37.053-2.891,41.083-2.891,41.083-15.522-16.7-22.956-49.82-6.781-82.644-6.781-82.644l154.036-161.4Z" transform="translate(-589.196 1783.681)" fill="#30161f"/>
    <path id="Path_1218" data-name="Path 1218" d="M-72.11,3241.5l34.338,298.74,10.3-145.936s-5.151,61.379,0,106.447,20.6,73.826,20.6,73.826a509,509,0,0,1-6.868-82.411c0-45.068,6.868-97.863,6.868-97.863s-2.146,70.822,12.018,132.2S49.79,3639.816,49.79,3639.816s-23.178-63.954-27.47-125.333,10.3-120.183,10.3-120.183,1.288,90.566,17.169,164.822,46.356,132.2,46.356,132.2-20.6-69.1-27.47-151.087,0-176.84,0-176.84Z" transform="translate(-589.196 1783.681)" fill="#30161f"/>
    <path id="Path_1212" data-name="Path 1212" d="M18.314,398C4.529,446.994-1.206,498.746.209,550.825A605.013,605.013,0,0,0,24.843,704.784a593.642,593.642,0,0,0,60.72,138.8c25.3,41.857,55.349,78.879,89.106,108.967,33.339,29.715,72.281,54.969,111.609,76.015a922.664,922.664,0,0,0,112.534,50.286c34.218,12.738,64.232,21.882,85.581,27.818,21.172,5.887,33.964,8.657,33.964,8.657s10.141-4.684,27.428-13.89c17.169-9.143,41.288-22.694,69.361-40.452a1109.733,1109.733,0,0,0,91.759-64.668,916.711,916.711,0,0,0,96.12-86.648c30.762-32.154,55.425-70.724,74.714-112.317,19.131-41.253,33.061-85.662,42.411-129.924a701.809,701.809,0,0,0,14.973-129.041c.854-40.83-2.237-78.534-8.761-109.762-6.542-31.316-21.35-68.307-43.048-106.568A612.811,612.811,0,0,0,797.487,206.2c-35.393-37.642-76.954-72.323-123.32-99.15-47.262-27.346-99.692-46.632-155.811-52.535A435.376,435.376,0,0,0,352.638,69.165c-53.6,15.308-103.622,40.271-148.2,72.209a515.579,515.579,0,0,0-116.5,115.662C55.895,301.184,32.031,349.254,18.314,398Z" transform="translate(-752.859 4190.701)" fill="#a7b5c7"/>
    <path id="Path_1219" data-name="Path 1219" d="M352.834,3522.366s-60.961-34.421-103.223-59.513-124.805-94.76-203.387-186.219-94.988-311.683-94.988-311.683l-2.058,330.01s23.525,35.25,78.552,80.566,130.039,81.134,183.49,102.319C283.38,3507,352.834,3522.366,352.834,3522.366Z" transform="translate(-587.318 1783.681)" fill="#73799f"/>
    <path id="Path_1221" data-name="Path 1221" d="M-47.827,3026.61l25.05,106.859,17.855,54.586s-4.922-59.676,4.307-72.6,26.454-71.98,38.759-74.441,15.38,41.835,23.378,52.909,15.262,2.115,33.6,11.5,24.845,33.723,43.24,28.925S256,2996.836,266.328,2973.592C278.8,2945.52,305.6,2861.42,305.6,2861.42l14.471-91.667-12.316-93.526L-67.928,2889.062Z" transform="translate(-587.318 1783.681)" fill="#73799f"/>
    <path id="Path_1216" data-name="Path 1216" d="M-158.482,3127.99s-3.327,141.541,25.4,280.392,89.5,275.01,89.5,275.01L-67.355,3564.53s35.931,131.882,45.063,160.346,42.567,82.175,42.567,82.175-30.971-70.414-35.214-84.656-46.288-170.274-52.416-196.164c-10.247-43.293-7.924-158.482-7.924-158.482s-5.613,41.932,22.452,158.482,89.807,307.72,89.807,307.72-54.156-252.006-64.714-307.72-13.471-104.463-15.848-169.048,0-408.092,0-408.092Z" transform="translate(-589.196 1783.681)" fill="#3d1d28"/>
    <path id="Path_1217" data-name="Path 1217" d="M785.872,2995.293s10.1,229.892,0,343.722-40.4,111.6-40.4,111.6,15.624-51.335,15.624-120.526-15.624-156.237-15.624-156.237,1.674,91.51-8.928,165.165-33.479,129.454-33.479,129.454,10.047-46.871,6.142-138.382-14.495-236.469-30.375-329.482-91.128-248.29-91.128-248.29Z" transform="translate(-589.196 1783.681)" fill="#3d1d28"/>
    <path id="Path_1222" data-name="Path 1222" d="M1914.405,3897.39c7.137-1.463,61.193-98.472,136.857-104.958s110.1,39.1,110.1,39.1,2.12-15.978-7.857-23.737-59.585-44.62-119.724-31.871-115.013,77.876-120.833,82.865S1907.268,3898.854,1914.405,3897.39Z" transform="translate(-2143.928 800.857)" fill="#30161f"/>
    <path id="Path_1238" data-name="Path 1238" d="M514.247,2967.134s12.044,22.256-5.76,26.446-111.28,14.146-117.3,15.455-21.732,18.382-21.732,18.382.141-30.989,2.558-35.622,13.858-44.544,40.021-73.855,59.593-47.419,68.5-47.157-14.457,73.049-14.457,73.049Z" transform="translate(-589.196 1783.681)" fill="#73799f"/>
    <path id="Path_1215" data-name="Path 1215" d="M-202.4,2810.941s-10.229-133.924,35.995-332.026,276.022-342.056,475.445-359.225,301.115,130.747,372.432,228.478,92.448,323.566,92.448,323.566S584.75,2457.276,340.67,2492.078-202.4,2810.941-202.4,2810.941Z" transform="translate(-577.242 1964.681)" fill="#201324"/>
    <path id="Path_1220" data-name="Path 1220" d="M611.482,2772.141s54.942,132,53.943,204.6-66.242,203.679-66.242,203.679,10.425-108.85,17.454-184.407-71.19-307.073-71.19-307.073v151.882l-51.507-203.387,10.566,216.594-63.393-216.594,15.848,146.6-47.545-138.673,25.093,106.977-35.659-88.487,10.566,88.487L356.588,2654.6s26.668,98.723,11.175,199.425-73.146,203.385-73.146,203.385,29.208-104.994,27.43-203.385-34.541-190.18-34.541-190.18-17.271,232.542-35.252,276.024-120.183,183.07-120.183,183.07,34.846-63.6,48.053-94.076,16.966-78.63,16.966-78.63l-69.794,150.252L172.5,2950.233s-27.684,66.007-45.208,102-30.478,48.256-30.478,48.256,15.239-36.065,20.318-71.622-14.731-90.618-14.731-90.618L71.419,3083.723,45.513,2912.847-10.87,3116.232l-51.1-262.206,477.482-303.051Z" transform="translate(-589.196 1783.681)" fill="#3d1d28"/>
    <path id="Path_1214" data-name="Path 1214" d="M-146.374,3124.725s5.588-54.948,8.719-81.737S-90.642,2821,37.771,2690.354,277.566,2526.559,376,2522.5s210.181,68.066,257.928,125.972S734.033,2868,743.41,2910.114s17.169,159.67,17.169,159.67,39.895-263.079,34.338-319.34-47.209-182.233-103.084-254.363S490.189,2311.991,376,2324.658c-110.167,12.22-253.585,41.142-400.379,175.488s-179.815,285.47-186.795,361.9c-2,21.858,8.938,35.328,11.986,74.948,1.326,17.235-2.262,52.66,8.892,99.595S-146.374,3124.725-146.374,3124.725Z" transform="translate(-577.242 1964.681)" fill="#251726"/>
    <path id="Path_1223" data-name="Path 1223" d="M382,2998.993s1.036-10.469,2.419-12.639c8.37-13.134,43.693-65.115,90.02-84.882,53.006-22.617,129.862-4.483,129.862-4.483s-26.975,50.643-79.981,73.26c-43.889,18.727-109.589,20.863-132.509,21.2C387.428,2991.518,382,2998.993,382,2998.993Z" transform="translate(-589.196 1783.681)" fill="#210e15"/>
    <path id="Path_1234" data-name="Path 1234" d="M393.99,2975.767s4.657-6.821,5.9-8.773c7.531-11.818,39.916-52.388,81.6-70.175,47.694-20.351,100.532-.518,100.532-.518s-22.709,40.518-70.4,60.869c-42.4,12.572-91.106,14.289-111.73,14.595C396.692,2971.849,393.99,2975.767,393.99,2975.767Z" transform="translate(-589.196 1794.59)" fill="#c1ccdb"/>
    <path id="Path_1225" data-name="Path 1225" d="M552.316,2895.126c3.035.848,22.739-6.83,22.739-6.83l-6.289,6.184,14.692-5.43-9.158,7.17,9.381-2.22-2.464,3.061,6.7-3.775-2.732,5.166,7.775-7.129-1.393,8.468,4.606-2.31-3.213,4.121S549.281,2894.278,552.316,2895.126Z" transform="translate(-578.28 1779.681)" fill="#210e15"/>
    <path id="Path_1236" data-name="Path 1236" d="M429.292,2940.358s29.64,29.027,67.014,15.51,48.468-57.514,48.468-57.514-25.1-10.071-62.469,3.446S429.292,2940.358,429.292,2940.358Z" transform="translate(-589.196 1783.681)" fill="#210e15"/>
    <path id="Path_1239" data-name="Path 1239" d="M236.912,3325.952s49.016,4.34,91.565,2.042a472.579,472.579,0,0,0,78.63-11.233h-78.63Z" transform="translate(-589.196 1783.681)" fill="#737a9f"/>
    <path id="Path_1237" data-name="Path 1237" d="M3750.033,4275.249c6.781,1.571,85.253-.915,155.344-4.425s80.589.811,126.084-.891a337.075,337.075,0,0,0,40.641-3.69c6.558-.776,14.227-1.657,18.406-4.3s2.909-6.435-2.257-6.559-15.006,5.821-18.194,6.841-3.536,4.646-41.659,4.646-64.207-5.6-106.129-4.9-79.532,8.686-122.251,10.133-41.446-4.8-46.6-4.437S3743.252,4273.678,3750.033,4275.249Z" transform="matrix(0.999, -0.035, 0.035, 0.999, -4328.062, 973.492)" fill="#210e15"/>
    <g id="Group_597" data-name="Group 597">
      <path id="Path_1296" data-name="Path 1296" d="M-262.608,4874.271c31.021.375,68.353,33.759,68.353,33.759l-77.17,32.07-56.751-27.341s-5.214-48.322,6.5-54.662S-277.628,4862.763-262.608,4874.271Z" fill="#73799f"/>
      <path id="Path_1293" data-name="Path 1293" d="M-6632.483,673.425c4.214-14.24,52.172-74.765,52.172-74.765s76,70.191,87.516,68.158,26.878,0,30.492,4.517,8.583,25.3-2.259,33.655-24.213,24.3-38.237,25.011-25.891-6.353-40.643-8.83-32.71.779-45.052-3.951S-6635.5,683.635-6632.483,673.425Z" transform="matrix(0.978, -0.208, 0.208, 0.978, 5987.293, 2907.648)" fill="#73799f"/>
    </g>
    <path id="Path_1294" data-name="Path 1294" d="M20.415,0C5.163,0,0,14.05,0,25.782s23.995,17.16,39.247,17.16S65.293,36.43,62.83,25.782,35.667,0,20.415,0Z" transform="translate(-330.71 4903.53) rotate(12)" fill="#210e15"/>
    <path id="Path_1295" data-name="Path 1295" d="M13.376,5.466c14.079-7.216,32.911-8.1,35.551,2.288S39.951,33.8,28.863,39.433,8.272,49.464,2.816,43.657-.7,12.682,13.376,5.466Z" transform="translate(-254.256 4900.848) rotate(10)" fill="#210e15"/>
  </g>
</svg>
