<svg xmlns="http://www.w3.org/2000/svg" width="917.507" height="1103.131" viewBox="0 0 917.507 1103.131">
  <g id="scarlet_bust" transform="translate(-737.474 -5221.998)">
    <path id="Path_1263" data-name="Path 1263" d="M973.972,4757.222c-3.641,34.584-15.618,91.813-15.618,91.813s30.762-73.828,34.039-109.868-3.028-120.263-3.028-120.263,25.963,117.349,25.234,136.644-2.912,29.852-2.912,29.852,15.29-10.557,19.294-26.211c2.3-8.971,21.793-79.975,21.793-79.975s3.473,35.444,6.944,51.343,0,56.818,0,56.818,10.721-32.79,10.193-59.367-5.365-91.508-5.365-91.508,19.843,91.618,21.647,109.05-5.514,49.791-5.514,49.791,18.739-34.161,18.138-52.8-7.683-85.649-6.277-98.846c2.6-24.394,16-66.384,16-66.384s-2.9,19.471-4.078,39.606c-.55,9.383,5.826,19.128,6.611,26.778,2.4,23.395,7.064,27.193,7.064,27.193l7.2-119.171,16,47.988,10.4-35.191h17.6l5.6-22.395s7.2,13.6,9.6,22.395,0,12.8,0,12.8,7.2-5.8,7.2-20-7.2-36.792-7.2-36.792l22.395,31.193,15.2-31.193,10.4,12.8,18.4-33.592,6.4,20.795,31.193-16.8,8.8,16.8,51.988-50.388-15.992-23.982L963.771,4614.9S977.612,4722.638,973.972,4757.222Z" transform="translate(99.338 1359.868)" fill="#30161f"/>
    <path id="Path_1279" data-name="Path 1279" d="M654.656,4202.167l-1.358,9.805,12.218,19.458,4.34,3.992,6.839-28.672-15.176-6.469Z" transform="translate(99.338 1359.868)" fill="#201324"/>
    <path id="Path_1266" data-name="Path 1266" d="M788.682,4476.784c.549,9.854-2.985,21.084-2.985,21.084l-3.878,16.8c-4.88,18.985-31,24.713-31,24.713s13.625,40.213,14.8,45.448-29.815,79.756-24.691,84.758l.415,1.414c.309,3.048,5.129,14.655,11.047,19.921,24.678,21.961,114.212,78.151,152.248,101,11.8,7.089,28.719,3.575,28.719,3.575l38.54-26.628,60.536-341.646L922.3,4341.913S786.983,4446.278,788.682,4476.784Z" transform="translate(-960.627 1552.371) rotate(-13)" fill="#a7b5c7"/>
    <path id="Path_1268" data-name="Path 1268" d="M778.975,4711.165c5.543,4.313,136.393,93.518,149.319,91.718,15.188-2.116,119.822-51.56,119.822-51.56l-15.68-324.1-110.717-31.843s30.7,137.791,38.118,193.174-3.324,143.1-7.609,160.049-29.8,34.107-41.292,33.7S778.975,4711.165,778.975,4711.165Z" transform="translate(-960.627 1552.371) rotate(-13)" fill="#73799f"/>
    <path id="Path_1298" data-name="Path 1298" d="M785.541,4422.662s1.441,23.616,3.141,54.122c.753,13.514,33.095,26.118,45.121,33.781s38.243,30.759,37.128,48.033-16.019,53.205-16.019,53.205,51.8-71.743,63.364-98.7,15.986-125.562,15.986-125.562l-92.491,10.874Z" transform="translate(-960.627 1552.371) rotate(-13)" fill="#73799f"/>
    <path id="Path_1270" data-name="Path 1270" d="M783.714,4283.73s-10.353,34.124-12.3,101.641c-.249,21.643-.594,28.295,2.034,43.057,1.908,10.717,11.886,52.719,12.357,58.348a69.552,69.552,0,0,1-.43,12.48l2.762-8.367,1.045-12.339s-.82-36.776,3.669-47.348c5.668-13.348,19.6-22.622,29.906-29.541,17.685-11.869,39.87-4.045,48.539-4.765s34.411-18.712,62.963-9.357L922.3,4341.913Z" transform="translate(-960.627 1552.371) rotate(-13)" fill="#a7b5c7"/>
    <path id="Path_1271" data-name="Path 1271" d="M768.332,4577.468c-4.811-3.1-14.517-6.608-14.517-6.608-9.74.522-7.114,20.633-.374,29.825s14.741,13.686,15.176,15.623c.173.771,4.676-.484,8.26-6.989,3.121-5.666,7.865-14.993,6.308-19.579S773.143,4580.568,768.332,4577.468Z" transform="translate(-970.627 1522.371) rotate(-13)" fill="#73799f"/>
    <path id="Path_1277" data-name="Path 1277" d="M711.914,4329.432c-1.556,3.109,5.184,10.323,7.537,9.146s15.6-34.569,24.974-41.866,40.515-22.181,48.7-22.4,5.829-9.4,0-9.529c-9.478-.215-43.228,13.193-55.991,23.945S713.47,4326.323,711.914,4329.432Z" transform="translate(1619.627 1363.231) rotate(20)" fill="#30161f"/>
    <path id="Path_1278" data-name="Path 1278" d="M667.527,4083l14.766-20.622s7-28.869,11.973-40.181,18.173-35.492,18.173-35.492,81.826-62.756,103.359-72.6,101.118-56.1,244.862-51.679,246.708,63.369,263.319,78.75,30.015,32.5,30.8,45.529-.524,33.661,4.452,46.2,4.841,73.794,7.052,85.364,6.3,10.278,8.045,26.029-17.682,76.229-17.251,88.723,9.206,23.912,9.206,23.912l-358.727-19.4Z" transform="translate(99.338 1359.868)" fill="#201324"/>
    <path id="Path_1275" data-name="Path 1275" d="M795.91,4344.473c-19.215,4.2-29.228,19.4-34.809,28.159-.9,1.4-1.554,5.559-1.167,6,.283.324,1.147-1.666,2.591-1.207,8.158,2.6,33.959,5.769,45.059,4.24s34.505-14.09,32.244-24.109S815.125,4340.274,795.91,4344.473Z" transform="translate(-749.547 1578.895) rotate(-11)" fill="#210e15"/>
    <path id="Path_1276" data-name="Path 1276" d="M735.041,4375.194c.219.408,2.049-1.137,3.442-.6s25.919,6.542,38.157,3.5,30.4-18.2,24.651-23.33-18.566-10.407-33.645-7.756c-12.455,2.189-30.315,22.444-31.3,23.943S734.609,4374.387,735.041,4375.194Z" transform="translate(-719.483 1573.052) rotate(-11)" fill="#c1ccdb"/>
    <path id="Path_1299" data-name="Path 1299" d="M-442.21,6183.965c-.107.166,8.123,12.589,21.555,10.727s26.624-25.542,26.624-25.542a37.45,37.45,0,0,0-23.894-3.56C-431.081,6168.216-442.21,6183.965-442.21,6183.965Z" transform="translate(96.532 -440.45) rotate(-11)" fill="#210e15"/>
    <path id="Path_1261" data-name="Path 1261" d="M1119.817,4766.5c2.7,28.363-13.528,27.59-37.341,77.279l43.132,18.174,430.035-39.061c-22.738-41.972-88.049-81.726-100.354-102.077-5.894-9.748-33.582-69.867-60.88-129.97-29.592-65.154-58.716-130.27-58.716-130.27s-70.621,3.762-156.9,48.176S1117.115,4738.138,1119.817,4766.5Z" transform="translate(99.338 1359.868)" fill="#a7b5c7"/>
    <path id="Path_1262" data-name="Path 1262" d="M1040.817,4633.257s76.3,104.881,79,133.244c.328,3.448,48.343,7.653,83.11,31.61,32.925,22.688,331.3-3.776,331.3-3.776-9.293-11.906-56.589-50.521-58.562-52.5-4.061-3.973-72.236-57-90.977-70.784s-29.3-60.489-32.566-77.062c-.822-4.168-6.926-41.517-18.448-42.869a95.188,95.188,0,0,0,13.256-16.314c5.863-9.3,11.735-23.018,11.735-23.018l-22.969-51.212s-70.621,3.762-156.9,48.176S1040.817,4633.257,1040.817,4633.257Z" transform="translate(99.338 1359.868)" fill="#73799f"/>
    <path id="Path_1264" data-name="Path 1264" d="M1080.131,4692.847c2.319-2.77,283.384-154.208,290.236-155.759s10.07,3.952,11.089,6.5,2.545,12.112,0,14.151-282.079,156.521-286.285,158.56-9.527-1.366-12.931-7.344S1077.812,4695.616,1080.131,4692.847Z" transform="translate(99.338 1359.868)" fill="#130f13"/>
    <path id="Path_1304" data-name="Path 1304" d="M1338.03,4553.492s9.95-5.284,19.244-10.111c5.359-2.784,10.469-5.7,13.094-6.293,6.853-1.552,10.07,3.952,11.089,6.5s2.545,12.112,0,14.151-33.159,18.61-33.159,18.61-2.16-9.208-3.878-12.8A92.9,92.9,0,0,0,1338.03,4553.492Z" transform="translate(99.338 1359.868)" fill="#262026"/>
    <path id="Path_1265" data-name="Path 1265" d="M832.415,4254.36s70.137,132.276,88.963,190.168,50.388,318.323,50.388,318.323V4584.494s25.88,68.5,27.37,103.84-8.613,76.29-8.613,76.29,27.565-44.139,29.246-70.182-5.859-74.017-5.859-74.017l10.035,72.054,4.722,43.229,7.383-53.526,11.689,23.38,10.467-85.136s-1.635,28.374,1.445,35.684,8.69,10.538,14.842,26.072,8.323,40.373,8.323,40.373,6.377-18.063,4.839-45.133-10.991-63.148-10.991-63.148l16.615,28.312,3.691-66.445s11.689,13.074,11.689,28.916-11.689,34.453-11.689,34.453,15.616-13.367,19.307-33.117-4.542-45.882-4.542-45.882,15.073,24.617,17.842,42.521a99.6,99.6,0,0,1,0,31.644s8.251-10.265,9.943-31.644-9.943-56.423-9.943-56.423,9.4,14.444,14.629,39.208.754,42.63.754,42.63a72.9,72.9,0,0,0,19.548-42.63c2.461-26.3-4.17-45.36-4.17-45.36a44.959,44.959,0,0,1,11.9,16.721c4.307,10.613,5.323,25.73,5.323,25.73s3.509-17.272,3.509-27.885-3.509-14.567-3.509-14.567,9.016,1.553,12.341,10.474.96,25.21.96,25.21,10.021-12.421,13.688-25.21.983-25.944.983-25.944a98.472,98.472,0,0,1,7.07,16.812c2.958,9.465-1.155,23.914-1.155,23.914a62.622,62.622,0,0,0,12.919-21.676c4.815-13.6,12.257-35.571,12.257-35.571s2.577,16.469,5.038,32.619,0,19.428,0,19.428,5.263-1.025,8.339-18.713,8.771-39.486,8.771-39.486-2.153,21.851,0,35.293c.741,4.624,4.52,3.382,5.976,6.431,2.387,5.008,2.638,12.044,2.638,12.044l12.92-63.612a80.563,80.563,0,0,0-1.142,23.1c.455,4.689,3.39,10.007,4.474,14.748a60.631,60.631,0,0,1,1.59,12.847l23.379-50.692-8.384,41.739s15.015-15.742,15.678-21.542,3.082-11.361,5.683-21.791,10.4-25.478,10.4-25.478a239.213,239.213,0,0,0-9.683,35.833,285.18,285.18,0,0,0-3.726,38.963,367.959,367.959,0,0,1,23.253-74.8s-6.3,18.149-8.894,28.664-.592,7.093-2.37,16.156-4.739,20.1-4.739,20.1,18.738-48.307,18.925-43.672a135.259,135.259,0,0,1-.615,18.837,145.622,145.622,0,0,1-12.151,44.188s12.986-9.582,24.214-42.25,20.08-51.259,20.08-51.259Z" transform="translate(99.338 1359.868)" fill="#3d1d28"/>
    <path id="Path_1272" data-name="Path 1272" d="M745.658,4211.241s45.767,111.746,47.951,156.159,2.141,132.727,2.141,132.727,38.122-93.809,42.855-130.578,4.258-158.308,4.258-158.308Z" transform="translate(99.338 1359.868)" fill="#3d1d28"/>
    <path id="Path_1274" data-name="Path 1274" d="M669.365,4234.946c-2.75,2.115-25.147-25.775-25.219-36s9.789-13.28,10.459-26.455-4.651-13.735-2.461-28.916,9.946-65.826,21.613-68.549,268.775,72.239,386.284,109.769,142.118,56.6,177.186,60.292,113.733-3.69,117.939-2.288,21.1,13.365,22.333,23.207-4.922,5.536-4.922,54.139,4.922,140.272,4.922,140.272-73.52-27.993-159.344-55.371-142.449-38.331-183.954-54.14-233.456-105.817-276.238-121.2-92.666-27.772-100.9-25.839S669.365,4234.946,669.365,4234.946Z" transform="translate(99.338 1359.868)" fill="#251726"/>
    <path id="Path_1273" data-name="Path 1273" d="M721.7,4505.324c-1.657.373-10.961-1.914-13-5.99s-3.073-13.789,1.02-15.3,10.707,4.463,11.981,8.924S723.361,4504.951,721.7,4505.324Z" transform="translate(89.338 1329.868)" fill="#210e15"/>
    <path id="Path_1280" data-name="Path 1280" d="M507.3,4846.558s-72.931-52.527-110.1-56.322-121.486,6.541-213.154,63.426S30.524,5017.59,30.524,5017.59H95.91s46.589-84.047,121.169-132.6,137.071-55.543,177.062-54.928,134.449,44.91,134.449,44.91-5.334-8.791-10.658-15.894A139.012,139.012,0,0,0,507.3,4846.558Z" transform="translate(1126.338 1307.537)" fill="#251726"/>
    <path id="Path_1282" data-name="Path 1282" d="M1122.565,4965.26h433.078V4822.893c-4.648-8.58-66.493-47.717-160.437-33.648s-215.339,89.922-215.339,89.922Z" transform="translate(99.338 1359.868)" fill="#1b0c1c"/>
    <path id="Path_1281" data-name="Path 1281" d="M399.384,4821.684c-37.173-3.8-107.122,11.048-198.789,67.933S77.616,5017.59,77.616,5017.59H96.074s46.646-62.866,121.227-111.419,140.277-60.295,180.268-59.68,131.021,28.481,131.021,28.481-2.1-3.8-5.393-8.722c-1.424-2.126-3.465-4.771-5.265-7.172C512.609,4851.974,436.557,4825.479,399.384,4821.684Z" transform="translate(1126.338 1307.537)" fill="#39263a"/>
    <path id="Path_1283" data-name="Path 1283" d="M1100.912,4811.507s-30.569,33.068-54.382,82.758-21.965,71-21.965,71h43.573l120.138-147.617s-46.6,32.4-72.447,25.484S1100.912,4811.507,1100.912,4811.507Z" transform="translate(99.338 1359.868)" fill="#251726"/>
    <path id="Path_1297" data-name="Path 1297" d="M-473.737,6390.2a6.094,6.094,0,0,1,3.5-1.384c1.637-.105,14.682-1.415,21.346-.8s37.714,11.3,37.714,11.3L-447.3,6396s-19.05,1.322-21.023,1.554-1.732.716-2.544.4-1.273-1.958-1.933-3.37a4.373,4.373,0,0,1-1.047-1.812A3.785,3.785,0,0,1-473.737,6390.2Z" transform="translate(1284.555 -458.937)" fill="#3d1d28"/>
  </g>
</svg>
